# xmcd
#
# Track frame offsets:
#  150
#  11750
#  24702
#  36605
#  50670
#  65810
#  79567
#  95597
#  107342
#  117840
#  132215
#  144242
#  157100
#
# Disc length: 2264 seconds
#
# Revision: 0
# Processed by: cddbd v1.4PL0 Copyright (c) Steve Scherf et al.
# Submitted via: AltoMP3_Maker 3.0
#
DISCID=b208d60d
DTITLE=Joni Harms - After All
DYEAR=1900
DGENRE=
TTITLE0=Weakness for Cowboys
TTITLE1=More Than Your Eyes Can See
TTITLE2=Every Cowgirl's Dream
TTITLE3=After All
TTITLE4=Keep On Dreamin'
TTITLE5=West Texas Waltz
TTITLE6=Ay Yi Yi Yi
TTITLE7=Millie
TTITLE8=A Cowboy Wedding
TTITLE9=It'll Happen When It's Time
TTITLE10=Cowboy Coffee
TTITLE11=Sunday Go To Meeting Clothes
TTITLE12=I Want To Sing For You
EXTD=
EXTT0=
EXTT1=
EXTT2=
EXTT3=
EXTT4=
EXTT5=
EXTT6=
EXTT7=
EXTT8=
EXTT9=
EXTT10=
EXTT11=
EXTT12=
PLAYORDER=
